<svg width="24" height="24" viewBox="0 0 24 24" fill="none" xmlns="http://www.w3.org/2000/svg">
<g clip-path="url(#clip0_205_28814)">
<path d="M5.03841 5.1943C5.11977 5.19412 5.20113 5.19389 5.28249 5.19361C5.50202 5.19303 5.72155 5.19325 5.94108 5.19366C6.17132 5.19399 6.40156 5.19368 6.6318 5.19348C7.01806 5.19325 7.40431 5.19355 7.79057 5.19417C8.23695 5.19487 8.68332 5.19464 9.1297 5.19393C9.51356 5.19335 9.89743 5.19327 10.2813 5.1936C10.5103 5.1938 10.7393 5.19383 10.9683 5.19341C11.1834 5.19303 11.3985 5.19329 11.6136 5.19404C11.6924 5.19421 11.7713 5.19416 11.8502 5.19387C11.9579 5.19352 12.0656 5.19396 12.1733 5.19461C12.2045 5.19432 12.2356 5.19403 12.2677 5.19374C12.4675 5.19604 12.6044 5.23327 12.7735 5.33988C12.9218 5.53511 12.9741 5.68697 12.962 5.93238C12.9274 6.13007 12.8413 6.27603 12.68 6.39997C12.5295 6.47079 12.3988 6.47508 12.2358 6.47362C12.2037 6.47385 12.1716 6.47407 12.1384 6.47431C12.0309 6.4749 11.9235 6.47459 11.816 6.47428C11.7388 6.47453 11.6617 6.47484 11.5845 6.47519C11.4184 6.47584 11.2523 6.47609 11.0862 6.47603C10.8232 6.47594 10.5603 6.47678 10.2973 6.47776C9.78622 6.47952 9.27512 6.48032 8.76402 6.48103C8.1144 6.48199 7.46478 6.48344 6.81516 6.48563C6.55408 6.48649 6.29301 6.4869 6.03193 6.48696C5.869 6.48708 5.70608 6.48755 5.54315 6.4881C5.46796 6.48829 5.39277 6.48833 5.31758 6.4882C4.63739 6.48723 4.0137 6.51951 3.48753 7.00291C3.19281 7.36095 3.05599 7.76735 3.0565 8.22396C3.05638 8.25942 3.05625 8.29489 3.05612 8.33142C3.05574 8.45043 3.05568 8.56944 3.05561 8.68844C3.05542 8.77371 3.0552 8.85897 3.05497 8.94424C3.0544 9.17605 3.05413 9.40786 3.05394 9.63967C3.05381 9.78455 3.05363 9.92943 3.05344 10.0743C3.05285 10.5277 3.05244 10.9812 3.05227 11.4346C3.05208 11.9578 3.05133 12.4809 3.05008 13.004C3.04915 13.4085 3.04872 13.8131 3.04866 14.2176C3.04862 14.4591 3.04836 14.7006 3.0476 14.9421C3.04689 15.1695 3.0468 15.3968 3.04717 15.6241C3.0472 15.7074 3.04702 15.7906 3.04659 15.8739C3.03373 16.5947 3.03373 16.5947 3.32572 17.2395C3.40336 17.346 3.45008 17.4166 3.49223 17.543C3.57008 17.5887 3.57008 17.5887 3.6641 17.6289C3.76732 17.6935 3.86994 17.759 3.97227 17.825C4.23 17.956 4.49001 17.9854 4.77551 17.9837C4.82326 17.9839 4.82326 17.9839 4.87199 17.9841C4.94047 17.9844 5.00895 17.9845 5.07743 17.9845C5.18602 17.9844 5.2946 17.985 5.40319 17.9857C5.71171 17.9877 6.02022 17.9888 6.32874 17.9891C6.51804 17.9893 6.70732 17.9903 6.89661 17.9919C6.96844 17.9923 7.04027 17.9924 7.1121 17.9922C7.21266 17.9919 7.31317 17.9926 7.41372 17.9936C7.4577 17.993 7.4577 17.993 7.50256 17.9925C7.73263 17.9964 7.86181 18.0598 8.04691 18.1875C8.26589 18.4292 8.23742 18.7468 8.22466 19.0521C8.22271 19.1256 8.22271 19.1256 8.22073 19.2006C8.21645 19.3562 8.21095 19.5117 8.20536 19.6673C8.20046 19.8239 8.19582 19.9805 8.19137 20.1372C8.18853 20.2344 8.18539 20.3317 8.18191 20.4289C8.18049 20.4726 8.17907 20.5162 8.17761 20.5611C8.17624 20.5997 8.17486 20.6383 8.17344 20.678C8.16576 20.7654 8.16576 20.7654 8.21879 20.8086C8.38576 20.8246 8.46613 20.8039 8.5951 20.6982C8.62508 20.6742 8.65507 20.6501 8.68596 20.6254C8.7179 20.599 8.74984 20.5726 8.78275 20.5454C8.85233 20.4896 8.92199 20.4339 8.99172 20.3783C9.02743 20.3497 9.06313 20.3211 9.09992 20.2916C9.26591 20.1607 9.43634 20.0361 9.60722 19.9117C9.89898 19.6984 10.1877 19.4815 10.4746 19.2618C10.8637 18.964 11.2567 18.6719 11.6524 18.3829C11.7733 18.2935 11.8924 18.2017 12.0113 18.1096C12.1391 18.0224 12.2504 18.0102 12.4004 18.0097C12.4383 18.0095 12.4762 18.0093 12.5152 18.009C12.5774 18.009 12.5774 18.009 12.6408 18.0089C12.6846 18.0087 12.7283 18.0084 12.7734 18.0082C12.8686 18.0078 12.9637 18.0074 13.0589 18.0071C13.2097 18.0066 13.3606 18.0058 13.5114 18.0048C13.9404 18.0022 14.3693 17.9999 14.7983 17.9984C15.0606 17.9975 15.3229 17.996 15.5852 17.9941C15.685 17.9935 15.7848 17.9931 15.8846 17.993C16.0246 17.9928 16.1647 17.9918 16.3047 17.9906C16.3456 17.9907 16.3864 17.9908 16.4285 17.991C16.9062 17.9851 17.3453 17.8392 17.7057 17.5175C17.9745 17.226 18.1494 16.8588 18.1505 16.4617C18.1509 16.3944 18.1509 16.3944 18.1512 16.3257C18.1513 16.2767 18.1513 16.2277 18.1513 16.1772C18.1516 16.1254 18.1518 16.0736 18.152 16.0203C18.1525 15.9077 18.1529 15.7951 18.1531 15.6826C18.1536 15.5043 18.1545 15.326 18.1554 15.1478C18.1581 14.6409 18.1604 14.134 18.1618 13.627C18.1626 13.347 18.1639 13.067 18.1656 12.7869C18.1665 12.6389 18.1672 12.4909 18.1673 12.3429C18.1674 12.1775 18.1685 12.0121 18.1696 11.8468C18.1695 11.7982 18.1694 11.7496 18.1693 11.6996C18.1721 11.4259 18.1918 11.174 18.3164 10.9258C18.4782 10.768 18.5954 10.704 18.8186 10.6975C19.0473 10.7005 19.1668 10.7426 19.3477 10.8829C19.5203 11.1279 19.4948 11.3902 19.4933 11.6778C19.4936 11.7588 19.4936 11.7588 19.494 11.8415C19.4946 11.9894 19.4943 12.1372 19.4939 12.285C19.4936 12.4404 19.4939 12.5957 19.4941 12.751C19.4943 13.0121 19.494 13.2732 19.4934 13.5344C19.4927 13.835 19.4929 14.1356 19.4936 14.4362C19.4942 14.6952 19.4943 14.9541 19.494 15.2131C19.4938 15.3674 19.4937 15.5217 19.4942 15.6759C19.4946 15.8485 19.494 16.021 19.4933 16.1935C19.4935 16.2438 19.4938 16.294 19.4941 16.3457C19.4905 16.8095 19.4117 17.2599 19.1973 17.6746C19.1827 17.7033 19.1681 17.7319 19.1531 17.7614C18.9914 18.0626 18.7759 18.2957 18.5313 18.5313C18.489 18.5748 18.489 18.5748 18.4459 18.6192C17.9447 19.1043 17.1995 19.315 16.517 19.3061C16.4799 19.3054 16.4429 19.3047 16.4048 19.304C16.3223 19.3029 16.2399 19.3018 16.1574 19.3007C16.114 19.3001 16.0706 19.2995 16.0258 19.2988C15.7449 19.2954 15.464 19.2949 15.183 19.2939C14.9372 19.2929 14.6915 19.2908 14.4458 19.2863C14.2069 19.282 13.9682 19.2808 13.7293 19.2815C13.639 19.2812 13.5488 19.2799 13.4586 19.2774C12.7713 19.2597 12.3815 19.4238 11.8659 19.8787C11.7602 19.9711 11.6497 20.054 11.5368 20.1372C11.4692 20.1891 11.4016 20.241 11.334 20.293C11.0171 20.5357 10.6977 20.7746 10.3753 21.0101C10.1907 21.1454 10.008 21.2827 9.82693 21.4226C9.78671 21.4536 9.7465 21.4847 9.70507 21.5166C9.62772 21.5764 9.55055 21.6365 9.47361 21.6969C9.00035 22.0627 8.6027 22.1925 8.00394 22.1407C7.6117 22.0363 7.30051 21.8437 7.06937 21.5096C6.80777 21.0384 6.83377 20.5692 6.85722 20.0486C6.85994 19.9763 6.8626 19.9039 6.86519 19.8315C6.87162 19.6559 6.87894 19.4803 6.88676 19.3047C6.84207 19.3052 6.84207 19.3052 6.79648 19.3056C6.51277 19.3082 6.22905 19.3101 5.94533 19.3114C5.79954 19.3121 5.65376 19.313 5.50797 19.3145C3.96464 19.3289 3.96464 19.3289 3.39017 19.0147C3.34727 18.9922 3.34727 18.9922 3.30349 18.9692C3.07476 18.846 2.86883 18.7058 2.67582 18.5313C2.64962 18.5085 2.62342 18.4858 2.59643 18.4623C2.05826 17.9643 1.75207 17.2143 1.71863 16.4894C1.71224 16.2637 1.71305 16.0381 1.71383 15.8123C1.71365 15.726 1.71342 15.6397 1.71314 15.5534C1.71256 15.3206 1.71278 15.0878 1.71319 14.8551C1.71352 14.6105 1.71321 14.3659 1.71301 14.1213C1.71278 13.7107 1.71309 13.3001 1.7137 12.8895C1.7144 12.416 1.71418 11.9426 1.71347 11.4691C1.71288 11.0613 1.7128 10.6534 1.71314 10.2456C1.71334 10.0026 1.71337 9.75956 1.71294 9.51656C1.71256 9.28801 1.71283 9.05947 1.71357 8.83092C1.71374 8.74748 1.71369 8.66402 1.71341 8.58058C1.71063 7.68925 1.85116 6.95898 2.41801 6.24223C2.44991 6.19791 2.48182 6.1536 2.51469 6.10795C3.2189 5.37172 4.06598 5.19076 5.03841 5.1943Z" fill="#28282A"/>
<path d="M18.3088 1.88396C18.3499 1.88933 18.3909 1.89471 18.4332 1.90024C18.8103 2.02148 19.0233 2.24967 19.2166 2.58489C19.2782 2.68747 19.34 2.78992 19.4029 2.89178C19.4604 2.99117 19.5099 3.08835 19.5586 3.19193C19.6906 3.4553 19.8124 3.68504 20.0968 3.79861C20.3179 3.86791 20.5436 3.90934 20.7715 3.94915C20.8879 3.97168 21.004 3.99503 21.12 4.01928C21.1916 4.03402 21.2635 4.04769 21.3355 4.06005C21.6453 4.11979 21.8509 4.27339 22.0686 4.497C22.2624 4.79853 22.3201 5.08533 22.2509 5.43761C22.1369 5.79993 21.8591 6.06153 21.6094 6.33651C21.4503 6.51419 21.3012 6.70052 21.1528 6.88714C21.1301 6.91329 21.1073 6.93945 21.0838 6.9664C21.0117 7.07795 21.011 7.13203 21.0192 7.26328C21.0224 7.32309 21.0224 7.32309 21.0257 7.3841C21.0287 7.42659 21.0316 7.46909 21.0347 7.51287C21.0383 7.57865 21.0383 7.57865 21.0419 7.64575C21.0537 7.857 21.0683 8.06796 21.0844 8.27892C21.1174 8.73306 21.1418 9.10461 20.8467 9.48138C20.6164 9.71839 20.3787 9.81656 20.0491 9.83201C19.6543 9.82739 19.3218 9.66223 18.9668 9.50555C18.8666 9.46169 18.7663 9.41816 18.6655 9.37549C18.6034 9.34914 18.5415 9.32211 18.48 9.2943C18.2145 9.1812 18.0403 9.21065 17.7747 9.30657C17.7198 9.3297 17.665 9.35312 17.6103 9.37681C17.5492 9.40216 17.4881 9.42748 17.427 9.45276C17.3323 9.49232 17.2379 9.53216 17.1436 9.57272C16.7141 9.75674 16.295 9.92535 15.8264 9.76566C15.5156 9.62904 15.3378 9.43881 15.2065 9.12336C15.1572 8.95908 15.1651 8.79475 15.1694 8.62469C15.1699 8.58682 15.1704 8.54896 15.1709 8.50995C15.1745 8.29158 15.185 8.07442 15.2017 7.85662C15.205 7.80943 15.2084 7.76224 15.2119 7.71361C15.2196 7.61898 15.2294 7.5245 15.2411 7.43029C15.2584 7.21625 15.2625 7.0751 15.1409 6.89267C15.0294 6.77104 14.9125 6.65759 14.7935 6.54339C14.018 5.65247 14.018 5.65247 13.9609 5.15764C13.9999 4.76841 14.1211 4.51226 14.4198 4.25839C14.6223 4.12154 14.8397 4.07301 15.0754 4.01897C15.1248 4.00615 15.1742 3.99333 15.2251 3.98013C15.4353 3.92633 15.6413 3.87667 15.8574 3.85566C16.0911 3.82894 16.2624 3.79506 16.4222 3.61547C16.593 3.38421 16.7343 3.13802 16.8724 2.88631C17.0874 2.50205 17.298 2.13978 17.6992 1.92962C17.9099 1.87419 18.0925 1.85181 18.3088 1.88396ZM18.1021 3.3637C18.0586 3.42646 18.0173 3.49068 17.9768 3.55538C17.9512 3.59609 17.9255 3.6368 17.8991 3.67875C17.8721 3.72189 17.8452 3.76504 17.8174 3.8095C17.6623 4.05715 17.5065 4.30433 17.3437 4.54702C17.3212 4.5809 17.2986 4.61477 17.2753 4.64968C17.1003 4.85568 16.8777 4.90472 16.6255 4.96479C16.5915 4.97319 16.5574 4.98159 16.5224 4.99025C16.4143 5.01684 16.3062 5.04294 16.198 5.06902C16.1244 5.08703 16.0509 5.10507 15.9774 5.12315C15.7977 5.16725 15.6179 5.21091 15.438 5.25432C15.5784 5.44547 15.7194 5.63098 15.8811 5.80486C15.9301 5.85911 15.9301 5.85911 15.9801 5.91446C16.0499 5.99163 16.1199 6.06849 16.1903 6.14509C16.2247 6.18436 16.2592 6.22363 16.2947 6.26409C16.3261 6.2991 16.3575 6.3341 16.3898 6.37017C16.614 6.73795 16.5539 7.15176 16.5176 7.56389C16.5087 7.67377 16.4998 7.78366 16.4911 7.89355C16.4869 7.94166 16.4828 7.98978 16.4785 8.03936C16.4696 8.17141 16.4676 8.30171 16.4692 8.43401C16.4989 8.4219 16.5285 8.40978 16.559 8.39729C17.518 8.00608 17.518 8.00608 17.8657 7.88616C17.9034 7.87309 17.9411 7.86002 17.9799 7.84655C18.3643 7.80219 18.741 8.01438 19.085 8.16009C19.1886 8.20389 19.2923 8.24735 19.3961 8.29067C19.4416 8.30993 19.4871 8.32918 19.5339 8.34902C19.6487 8.39842 19.6487 8.39842 19.7778 8.39104C19.7765 8.36516 19.7752 8.33927 19.7739 8.3126C19.7589 8.00939 19.7462 7.70613 19.7349 7.40276C19.7333 7.36364 19.7317 7.32451 19.7301 7.2842C19.7262 7.17959 19.7236 7.07504 19.7214 6.97039C19.7202 6.93954 19.7189 6.9087 19.7176 6.87692C19.7136 6.53331 19.938 6.32723 20.1511 6.08416C20.3754 5.82567 20.594 5.56346 20.8091 5.29729C20.6557 5.20956 20.5001 5.17384 20.3287 5.13381C20.2678 5.11922 20.2068 5.10462 20.1459 5.09C20.0506 5.06736 19.9552 5.04487 19.8597 5.02272C19.767 5.00113 19.6746 4.97889 19.5821 4.95656C19.527 4.94361 19.4718 4.93066 19.415 4.91731C19.1449 4.82944 18.9912 4.70577 18.8458 4.46393C18.8185 4.41932 18.7912 4.3747 18.7631 4.32873C18.7355 4.28234 18.7079 4.23596 18.6794 4.18816C18.624 4.09652 18.5684 4.00493 18.5128 3.9134C18.4867 3.87043 18.4606 3.82747 18.4337 3.78321C18.3433 3.63791 18.2491 3.49952 18.145 3.3637C18.1308 3.3637 18.1167 3.3637 18.1021 3.3637Z" fill="#28282A"/>
<path d="M7.60116 10.017C7.6292 10.0169 7.65725 10.0168 7.68614 10.0167C7.77978 10.0164 7.87342 10.0164 7.96706 10.0165C8.03434 10.0163 8.10162 10.0162 8.16889 10.016C8.35142 10.0157 8.53395 10.0156 8.71648 10.0155C8.83058 10.0155 8.94467 10.0154 9.05877 10.0153C9.45696 10.0149 9.85515 10.0147 10.2533 10.0147C10.6243 10.0148 10.9952 10.0143 11.3661 10.0136C11.6848 10.0131 12.0035 10.0129 12.3222 10.0129C12.5124 10.0129 12.7026 10.0128 12.8929 10.0123C13.0718 10.0119 13.2508 10.0119 13.4297 10.0122C13.4953 10.0123 13.5609 10.0121 13.6264 10.0119C13.7162 10.0116 13.8059 10.0118 13.8956 10.0121C13.9458 10.0121 13.9959 10.012 14.0476 10.012C14.2708 10.0286 14.4406 10.0651 14.613 10.2107C14.7664 10.3948 14.811 10.5053 14.8036 10.7522C14.7795 10.9475 14.6973 11.0669 14.5539 11.1963C14.3833 11.3144 14.2886 11.3174 14.0806 11.3181C14.0512 11.3183 14.0218 11.3184 13.9916 11.3186C13.8927 11.3191 13.7938 11.3192 13.6949 11.3194C13.6242 11.3196 13.5535 11.3199 13.4828 11.3202C13.2903 11.321 13.0978 11.3214 12.9053 11.3218C12.7851 11.322 12.6649 11.3223 12.5447 11.3225C12.1686 11.3234 11.7926 11.324 11.4166 11.3243C10.9823 11.3248 10.5481 11.3259 10.1138 11.3276C9.77832 11.3289 9.44282 11.3296 9.10731 11.3297C8.90686 11.3298 8.70643 11.3302 8.50598 11.3313C8.31736 11.3323 8.12876 11.3324 7.94014 11.332C7.87096 11.332 7.80178 11.3323 7.7326 11.3328C7.63803 11.3336 7.54352 11.3333 7.44894 11.3327C7.39606 11.3328 7.34318 11.3329 7.28869 11.333C7.06383 11.2999 6.93246 11.1917 6.7846 11.0244C6.69396 10.8396 6.67998 10.6975 6.71478 10.4954C6.77307 10.3336 6.85363 10.22 6.99139 10.114C7.19315 10.0254 7.38251 10.0173 7.60116 10.017Z" fill="#28282A"/>
<path d="M7.55766 13.1541C7.5954 13.1539 7.63314 13.1537 7.67203 13.1535C7.79703 13.1528 7.92204 13.1526 8.04704 13.1523C8.13391 13.1521 8.22077 13.1518 8.30764 13.1516C8.48987 13.1511 8.6721 13.1509 8.85433 13.1507C9.08768 13.1505 9.32102 13.1495 9.55437 13.1482C9.73385 13.1474 9.91333 13.1472 10.0928 13.1471C10.1788 13.147 10.2649 13.1467 10.3509 13.1461C10.4713 13.1454 10.5917 13.1455 10.7122 13.1457C10.7653 13.1451 10.7653 13.1451 10.8195 13.1445C11.0976 13.1465 11.2734 13.2091 11.477 13.4081C11.6149 13.613 11.6264 13.7602 11.5925 14.0016C11.5101 14.1903 11.3973 14.2943 11.2272 14.4071C11.0606 14.4627 10.9025 14.4568 10.7288 14.457C10.6911 14.4572 10.6534 14.4575 10.6145 14.4577C10.4895 14.4583 10.3645 14.4586 10.2395 14.4588C10.1526 14.4591 10.0657 14.4593 9.97886 14.4596C9.79663 14.46 9.6144 14.4603 9.43217 14.4604C9.19882 14.4607 8.96548 14.4617 8.73213 14.4629C8.55265 14.4637 8.37317 14.4639 8.19369 14.464C8.10767 14.4641 8.02165 14.4645 7.93564 14.4651C7.81519 14.4658 7.69478 14.4657 7.57434 14.4654C7.5389 14.4658 7.50347 14.4662 7.46696 14.4666C7.25632 14.4651 7.11315 14.4371 6.93036 14.3212C6.73933 14.1095 6.70044 13.9795 6.70326 13.7C6.72565 13.5004 6.82977 13.3836 6.97602 13.255C7.16192 13.1411 7.34716 13.1544 7.55766 13.1541Z" fill="#28282A"/>
</g>
<defs>
<clipPath id="clip0_205_28814">
<rect width="22" height="22" fill="white" transform="translate(1 1)"/>
</clipPath>
</defs>
</svg>
