<svg width="24" height="24" viewBox="0 0 24 24" fill="none" xmlns="http://www.w3.org/2000/svg">
<path d="M12.4348 2.33728C13.441 2.37224 14.3882 2.65544 15.2141 3.13025C14.8921 3.44299 14.6228 3.80949 14.4201 4.21521C13.8089 3.88931 13.1184 3.69563 12.3879 3.67029C12.3101 3.6676 12.2177 3.66736 12.0002 3.66736C11.7828 3.66736 11.6903 3.66761 11.6125 3.67029C9.42909 3.74593 7.6006 5.3233 7.19162 7.45056L7.15646 7.65759L7.11056 8.04333L6.85861 10.3099C6.80944 10.7525 6.77677 11.0578 6.73068 11.3256L6.67892 11.5844C6.61104 11.8829 6.51991 12.1758 6.40744 12.4603L6.2883 12.7426C6.14423 13.0587 5.96393 13.3564 5.65842 13.8656L4.78342 15.3236C4.50342 15.7903 4.33419 16.0761 4.24728 16.2855C4.24599 16.2887 4.2446 16.2923 4.24338 16.2953C4.24684 16.2959 4.25048 16.2977 4.25412 16.2982C4.47838 16.3315 4.81058 16.3334 5.3547 16.3334H18.6457C19.1899 16.3334 19.5221 16.3315 19.7463 16.2982C19.7496 16.2977 19.7529 16.2958 19.7561 16.2953C19.7549 16.2924 19.7543 16.2885 19.7531 16.2855C19.6662 16.0761 19.4969 15.7901 19.217 15.3236L18.342 13.8656C18.1129 13.4838 17.954 13.2207 17.8283 12.9799L17.7121 12.7426C17.5852 12.4639 17.4796 12.1757 17.3967 11.8812L17.3215 11.5844C17.2445 11.2457 17.2074 10.8998 17.1418 10.3099L17.0949 9.8949C17.386 9.96228 17.6887 9.99937 18.0002 9.99939C18.1507 9.99939 18.2994 9.99018 18.4455 9.974L18.467 10.1625C18.5357 10.7806 18.5649 11.04 18.6213 11.2885L18.6809 11.5199C18.7454 11.7488 18.8273 11.9732 18.926 12.1898L19.0129 12.3676C19.11 12.5533 19.2456 12.7801 19.4856 13.1801L20.3606 14.6381C20.6173 15.066 20.8508 15.4523 20.9846 15.7748C21.1032 16.0609 21.2045 16.4392 21.0608 16.8246L20.9826 16.9906C20.7327 17.4318 20.2918 17.5656 19.9416 17.6176C19.5962 17.6688 19.1449 17.6674 18.6457 17.6674H5.3547C4.85554 17.6674 4.40426 17.6688 4.05881 17.6176C3.7086 17.5656 3.2678 17.4317 3.01779 16.9906C2.76788 16.5492 2.8802 16.1019 3.01584 15.7748C3.14967 15.4522 3.38305 15.0661 3.63986 14.6381L4.51486 13.1801C4.83504 12.6464 4.96873 12.4217 5.07443 12.1898L5.16818 11.9701C5.2556 11.7489 5.32634 11.5206 5.37912 11.2885L5.4172 11.0951C5.45263 10.8884 5.48186 10.6264 5.53342 10.1625L5.78537 7.89587L5.83713 7.46521L5.88205 7.19861C6.4077 4.46346 8.7584 2.43472 11.5656 2.33728C11.6723 2.33359 11.7932 2.33337 12.0002 2.33337C12.2072 2.33337 12.3281 2.33358 12.4348 2.33728ZM16.7756 4.42029C17.4978 5.25922 17.9934 6.30441 18.1633 7.46521L18.2151 7.89587L18.2248 7.98572C18.1511 7.99395 18.0761 7.99939 18.0002 7.99939C17.5664 7.99933 17.1658 7.86011 16.8381 7.62537C16.7251 6.88868 16.4431 6.21354 16.0344 5.63708C16.1247 5.14438 16.3953 4.71563 16.7756 4.42029Z" fill="currentColor"/>
<path d="M9.10222 17.6647C9.27315 18.6215 9.64978 19.467 10.1737 20.0701C10.6976 20.6731 11.3396 21 12 21C12.6604 21 13.3024 20.6731 13.8263 20.0701C14.3502 19.467 14.7269 18.6215 14.8978 17.6647" stroke="currentColor" stroke-width="1.33333" stroke-linecap="round"/>
<circle cx="18.0005" cy="6.00012" r="2.33333" fill="#EB0000" stroke="#EB0000" stroke-width="0.666667"/>
</svg>
