<svg width="22" height="22" viewBox="0 0 22 22" fill="none" xmlns="http://www.w3.org/2000/svg">
<path d="M4.01089 2.95743C4.23152 3.08102 4.34768 3.23781 4.42513 3.4801C4.45097 3.71126 4.44941 3.94166 4.44859 4.1739C4.44897 4.24422 4.44942 4.31454 4.44994 4.38487C4.45113 4.57501 4.45128 4.76514 4.45124 4.95528C4.45137 5.15427 4.45247 5.35327 4.45347 5.55226C4.45521 5.92874 4.45609 6.30521 4.45665 6.68169C4.45733 7.11044 4.45898 7.53919 4.46071 7.96795C4.46425 8.8496 4.46658 9.73125 4.4681 10.6129C4.49212 10.5844 4.49212 10.5844 4.51662 10.5552C4.75164 10.2809 5.00531 10.0261 5.26043 9.77069C5.3096 9.72133 5.35875 9.67196 5.4079 9.62258C5.54051 9.48941 5.67326 9.35638 5.80606 9.22339C5.88912 9.1402 5.97216 9.05699 6.05519 8.97376C6.3153 8.71306 6.57551 8.45245 6.83583 8.19195C7.13581 7.89178 7.43551 7.59133 7.73496 7.29063C7.96697 7.05769 8.19923 6.825 8.43168 6.59249C8.57032 6.45381 8.70885 6.31503 8.84712 6.17599C8.97701 6.04538 9.10721 5.91509 9.23765 5.78503C9.2854 5.73732 9.33303 5.68949 9.38055 5.64155C9.44554 5.57602 9.51091 5.5109 9.57639 5.44587C9.61284 5.40936 9.64928 5.37285 9.68683 5.33524C9.89253 5.15959 10.0756 5.08794 10.3416 5.09781C10.5691 5.13247 10.7341 5.23046 10.8892 5.39758C10.9964 5.56048 11.0085 5.65847 11.0128 5.85413C11.0152 5.92624 11.0152 5.92624 11.0176 5.99982C10.9756 6.33134 10.6872 6.55405 10.4609 6.77835C10.424 6.81527 10.387 6.85219 10.349 6.89023C10.2483 6.99086 10.1475 7.0913 10.0465 7.19166C9.94083 7.2968 9.83541 7.40217 9.72995 7.50753C9.53047 7.70674 9.33078 7.90573 9.131 8.10465C8.90346 8.33122 8.67617 8.55804 8.4489 8.78488C7.98162 9.25127 7.51402 9.71735 7.04623 10.1832C7.12209 10.1834 7.12209 10.1834 7.19949 10.1835C8.40084 10.186 9.60218 10.1891 10.8035 10.1931C10.9515 10.1936 11.0994 10.194 11.2474 10.1945C11.2916 10.1946 11.2916 10.1946 11.3366 10.1948C11.8132 10.1963 12.2897 10.1974 12.7663 10.1983C13.2555 10.1992 13.7447 10.2006 14.2339 10.2025C14.5085 10.2035 14.7832 10.2043 15.0579 10.2046C15.3165 10.2049 15.5751 10.2057 15.8338 10.207C15.9286 10.2074 16.0234 10.2076 16.1183 10.2075C16.248 10.2074 16.3776 10.2082 16.5073 10.2091C16.5447 10.2089 16.582 10.2086 16.6205 10.2084C16.8999 10.2117 17.1842 10.2502 17.4084 10.429C17.4275 10.4542 17.4465 10.4795 17.4661 10.5055C17.4961 10.5434 17.4961 10.5434 17.5266 10.582C17.6495 10.7752 17.6407 10.9941 17.6165 11.2145C17.5445 11.4221 17.4151 11.5708 17.2298 11.6871C16.9885 11.7727 16.7724 11.7856 16.5177 11.785C16.4771 11.7853 16.4365 11.7855 16.3946 11.7858C16.259 11.7865 16.1233 11.7866 15.9877 11.7868C15.8903 11.7872 15.7929 11.7876 15.6955 11.7881C15.4313 11.7893 15.1671 11.7899 14.9029 11.7905C14.6267 11.7911 14.3505 11.7923 14.0744 11.7934C13.6109 11.7952 13.1474 11.7967 12.684 11.7979C12.2067 11.7992 11.7294 11.8007 11.2521 11.8024C11.2227 11.8025 11.1932 11.8026 11.1629 11.8027C11.0152 11.8033 10.8675 11.8038 10.7198 11.8043C9.49526 11.8088 8.27075 11.8126 7.04623 11.816C7.06608 11.8358 7.08593 11.8556 7.10638 11.876C7.58931 12.357 8.072 12.8383 8.55443 13.3198C8.78773 13.5527 9.02112 13.7854 9.25469 14.018C9.45827 14.2207 9.66169 14.4236 9.86493 14.6267C9.97256 14.7342 10.0803 14.8416 10.1881 14.9489C10.3086 15.0686 10.4286 15.1886 10.5487 15.3087C10.5845 15.3443 10.6204 15.3798 10.6573 15.4164C10.69 15.4492 10.7226 15.482 10.7563 15.5157C10.7847 15.5441 10.8131 15.5725 10.8424 15.6017C11.0252 15.8116 11.0176 16.0092 11.0128 16.2789C10.9952 16.4549 10.9508 16.5449 10.8275 16.6715C10.6436 16.8104 10.4917 16.8918 10.2608 16.9025C10.2301 16.9046 10.1993 16.9067 10.1677 16.9088C9.76749 16.8296 9.47015 16.4491 9.19468 16.1712C9.1435 16.1201 9.09229 16.069 9.04106 16.0179C8.90274 15.8798 8.76482 15.7413 8.62698 15.6027C8.48253 15.4576 8.33774 15.3128 8.19298 15.1681C7.95023 14.9251 7.70772 14.682 7.46537 14.4387C7.15405 14.1261 6.84232 13.8139 6.53047 13.5019C6.26238 13.2336 5.99446 12.9652 5.72658 12.6967C5.6404 12.6103 5.55419 12.524 5.46798 12.4377C5.33283 12.3023 5.1978 12.1668 5.06285 12.0313C5.01322 11.9815 4.96356 11.9317 4.91386 11.8819C4.84624 11.8142 4.77876 11.7464 4.71131 11.6786C4.65453 11.6216 4.65453 11.6216 4.5966 11.5635C4.51107 11.4723 4.51107 11.4723 4.4681 11.3864C4.468 11.4229 4.4679 11.4594 4.46779 11.497C4.46525 12.3857 4.46201 13.2743 4.45797 14.163C4.45604 14.5928 4.45435 15.0225 4.45322 15.4522C4.45223 15.8268 4.4508 16.2014 4.44882 16.5759C4.44779 16.7743 4.44699 16.9726 4.44672 17.1709C4.44646 17.3577 4.4456 17.5444 4.44429 17.7311C4.44391 17.7996 4.44375 17.868 4.44383 17.9365C4.4439 18.0302 4.44318 18.1237 4.44227 18.2174C4.44197 18.2959 4.44197 18.2959 4.44167 18.376C4.41042 18.6466 4.28228 18.8154 4.08138 18.9918C3.87864 19.1157 3.66726 19.1042 3.43685 19.0778C3.22718 19.0067 3.0861 18.8739 2.9642 18.691C2.91836 18.5535 2.9157 18.4554 2.91546 18.3109C2.91517 18.2318 2.91517 18.2318 2.91488 18.151C2.91488 18.0922 2.91489 18.0333 2.9149 17.9745C2.91476 17.9122 2.9146 17.8499 2.91443 17.7876C2.91399 17.616 2.91384 17.4444 2.91372 17.2729C2.91355 17.088 2.91314 16.9031 2.91277 16.7182C2.91192 16.2715 2.91149 15.8248 2.9111 15.3782C2.91091 15.1679 2.91068 14.9576 2.91046 14.7474C2.90973 14.0486 2.90911 13.3498 2.90879 12.651C2.90871 12.4696 2.90863 12.2882 2.90855 12.1068C2.90851 12.0392 2.90851 12.0392 2.90848 11.9702C2.90813 11.2397 2.90704 10.5091 2.90564 9.77855C2.90422 9.02881 2.90345 8.27906 2.90331 7.52931C2.90322 7.10824 2.90284 6.68716 2.90174 6.26608C2.90081 5.90753 2.90046 5.54899 2.90088 5.19044C2.90108 5.00747 2.90099 4.82452 2.90016 4.64156C2.89941 4.47404 2.89944 4.30654 2.90011 4.13902C2.90022 4.07844 2.90003 4.01786 2.89952 3.95728C2.89508 3.39317 2.89508 3.39317 3.0931 3.13635C3.34957 2.89866 3.67713 2.83918 4.01089 2.95743Z" fill="#697586"/>
</svg>
