<svg width="22" height="22" viewBox="0 0 22 22" fill="none" xmlns="http://www.w3.org/2000/svg">
<path d="M17.9891 2.95743C17.7685 3.08102 17.6523 3.23781 17.5749 3.4801C17.549 3.71126 17.5506 3.94166 17.5514 4.1739C17.551 4.24422 17.5506 4.31454 17.5501 4.38487C17.5489 4.57501 17.5487 4.76514 17.5488 4.95528C17.5486 5.15427 17.5475 5.35327 17.5465 5.55226C17.5448 5.92874 17.5439 6.30521 17.5433 6.68169C17.5427 7.11045 17.541 7.53919 17.5393 7.96795C17.5357 8.8496 17.5334 9.73125 17.5319 10.6129C17.5079 10.5844 17.5079 10.5844 17.4834 10.5552C17.2484 10.2809 16.9947 10.0261 16.7396 9.77069C16.6904 9.72133 16.6412 9.67196 16.5921 9.62258C16.4595 9.48941 16.3267 9.35638 16.1939 9.22339C16.1109 9.1402 16.0278 9.05699 15.9448 8.97376C15.6847 8.71306 15.4245 8.45245 15.1642 8.19195C14.8642 7.89178 14.5645 7.59133 14.265 7.29063C14.033 7.05769 13.8008 6.825 13.5683 6.59249C13.4297 6.45381 13.2912 6.31503 13.1529 6.17599C13.023 6.04538 12.8928 5.91509 12.7623 5.78503C12.7146 5.73732 12.667 5.68949 12.6194 5.64155C12.5545 5.57602 12.4891 5.5109 12.4236 5.44587C12.3872 5.40936 12.3507 5.37285 12.3132 5.33524C12.1075 5.15959 11.9244 5.08794 11.6584 5.09781C11.4309 5.13247 11.2659 5.23046 11.1108 5.39758C11.0036 5.56048 10.9915 5.65847 10.9872 5.85413C10.9848 5.92624 10.9848 5.92624 10.9824 5.99982C11.0244 6.33134 11.3128 6.55405 11.5391 6.77835C11.576 6.81527 11.613 6.85219 11.651 6.89023C11.7517 6.99086 11.8525 7.0913 11.9535 7.19166C12.0592 7.2968 12.1646 7.40217 12.27 7.50753C12.4695 7.70674 12.6692 7.90573 12.869 8.10465C13.0965 8.33122 13.3238 8.55804 13.5511 8.78488C14.0184 9.25127 14.486 9.71735 14.9538 10.1832C14.8779 10.1834 14.8779 10.1834 14.8005 10.1835C13.5992 10.186 12.3978 10.1891 11.1965 10.1931C11.0485 10.1936 10.9006 10.194 10.7526 10.1945C10.7084 10.1946 10.7084 10.1946 10.6634 10.1948C10.1868 10.1963 9.71028 10.1974 9.23374 10.1983C8.74454 10.1992 8.25534 10.2006 7.76615 10.2025C7.49147 10.2035 7.21679 10.2043 6.9421 10.2046C6.68348 10.2049 6.42487 10.2057 6.16625 10.207C6.07141 10.2074 5.97658 10.2076 5.88175 10.2075C5.75204 10.2074 5.62236 10.2082 5.49265 10.2091C5.45533 10.2089 5.418 10.2086 5.37954 10.2084C5.10011 10.2117 4.8158 10.2502 4.59159 10.429C4.57254 10.4542 4.55348 10.4795 4.53385 10.5055C4.50394 10.5434 4.50394 10.5434 4.47342 10.582C4.35053 10.7752 4.35934 10.9941 4.38346 11.2145C4.45555 11.4221 4.58494 11.5708 4.77018 11.6871C5.01153 11.7727 5.22762 11.7856 5.48232 11.785C5.52293 11.7853 5.56355 11.7855 5.60539 11.7858C5.74104 11.7865 5.87667 11.7866 6.01232 11.7868C6.10973 11.7872 6.20714 11.7876 6.30455 11.7881C6.56873 11.7893 6.8329 11.7899 7.09708 11.7905C7.37327 11.7911 7.64945 11.7923 7.92563 11.7934C8.3891 11.7952 8.85257 11.7967 9.31604 11.7979C9.79333 11.7992 10.2706 11.8007 10.7479 11.8024C10.7773 11.8025 10.8068 11.8026 10.8371 11.8027C10.9848 11.8033 11.1325 11.8038 11.2802 11.8043C12.5047 11.8088 13.7293 11.8126 14.9538 11.816C14.9339 11.8358 14.9141 11.8556 14.8936 11.876C14.4107 12.357 13.928 12.8383 13.4456 13.3198C13.2123 13.5527 12.9789 13.7854 12.7453 14.018C12.5417 14.2207 12.3383 14.4236 12.1351 14.6267C12.0274 14.7342 11.9197 14.8416 11.8119 14.9489C11.6914 15.0686 11.5714 15.1886 11.4513 15.3087C11.4155 15.3443 11.3796 15.3798 11.3427 15.4164C11.31 15.4492 11.2774 15.482 11.2437 15.5157C11.2153 15.5441 11.1869 15.5725 11.1576 15.6017C10.9748 15.8116 10.9824 16.0092 10.9872 16.2789C11.0048 16.4549 11.0492 16.5449 11.1725 16.6715C11.3564 16.8104 11.5083 16.8918 11.7392 16.9025C11.7699 16.9046 11.8007 16.9067 11.8323 16.9088C12.2325 16.8296 12.5299 16.4491 12.8053 16.1712C12.8565 16.1201 12.9077 16.069 12.9589 16.0179C13.0973 15.8798 13.2352 15.7413 13.373 15.6027C13.5175 15.4576 13.6623 15.3128 13.807 15.1681C14.0498 14.9251 14.2923 14.682 14.5346 14.4387C14.846 14.1261 15.1577 13.8139 15.4695 13.5019C15.7376 13.2336 16.0055 12.9652 16.2734 12.6967C16.3596 12.6103 16.4458 12.524 16.532 12.4377C16.6672 12.3023 16.8022 12.1668 16.9372 12.0313C16.9868 11.9815 17.0364 11.9317 17.0861 11.8819C17.1538 11.8142 17.2212 11.7464 17.2887 11.6786C17.3455 11.6216 17.3455 11.6216 17.4034 11.5635C17.4889 11.4723 17.4889 11.4723 17.5319 11.3864C17.532 11.4229 17.5321 11.4594 17.5322 11.497C17.5347 12.3857 17.538 13.2743 17.542 14.163C17.544 14.5928 17.5457 15.0225 17.5468 15.4522C17.5478 15.8268 17.5492 16.2014 17.5512 16.5759C17.5522 16.7743 17.553 16.9726 17.5533 17.1709C17.5535 17.3577 17.5544 17.5444 17.5557 17.7311C17.5561 17.7996 17.5563 17.868 17.5562 17.9365C17.5561 18.0302 17.5568 18.1237 17.5577 18.2174C17.558 18.2959 17.558 18.2959 17.5583 18.376C17.5896 18.6466 17.7177 18.8154 17.9186 18.9918C18.1214 19.1157 18.3327 19.1042 18.5631 19.0778C18.7728 19.0067 18.9139 18.8739 19.0358 18.691C19.0816 18.5535 19.0843 18.4554 19.0845 18.3109C19.0848 18.2318 19.0848 18.2318 19.0851 18.151C19.0851 18.0922 19.0851 18.0333 19.0851 17.9745C19.0852 17.9122 19.0854 17.8499 19.0856 17.7876C19.086 17.616 19.0862 17.4444 19.0863 17.2729C19.0864 17.088 19.0869 16.9031 19.0872 16.7182C19.0881 16.2715 19.0885 15.8248 19.0889 15.3782C19.0891 15.1679 19.0893 14.9576 19.0895 14.7474C19.0903 14.0486 19.0909 13.3498 19.0912 12.651C19.0913 12.4696 19.0914 12.2882 19.0915 12.1068C19.0915 12.0392 19.0915 12.0392 19.0915 11.9702C19.0919 11.2397 19.093 10.5091 19.0944 9.77855C19.0958 9.02881 19.0966 8.27906 19.0967 7.52931C19.0968 7.10824 19.0972 6.68716 19.0983 6.26608C19.0992 5.90753 19.0995 5.54899 19.0991 5.19044C19.0989 5.00747 19.099 4.82452 19.0998 4.64156C19.1006 4.47404 19.1006 4.30654 19.0999 4.13902C19.0998 4.07844 19.1 4.01786 19.1005 3.95728C19.1049 3.39317 19.1049 3.39317 18.9069 3.13635C18.6504 2.89866 18.3229 2.83918 17.9891 2.95743Z" fill="#697586"/>
</svg>
