<svg width="22" height="22" viewBox="0 0 22 22" fill="none" xmlns="http://www.w3.org/2000/svg">
<g clip-path="url(#clip0_553_26483)">
<mask id="path-1-inside-1_553_26483" fill="white">
<path d="M4.03853 4.19423C4.11989 4.19406 4.20125 4.19383 4.28261 4.19355C4.50214 4.19297 4.72167 4.19319 4.9412 4.1936C5.17144 4.19393 5.40168 4.19362 5.63192 4.19342C6.01818 4.19319 6.40443 4.19349 6.79069 4.19411C7.23707 4.19481 7.68344 4.19458 8.12982 4.19387C8.51369 4.19329 8.89755 4.19321 9.28142 4.19354C9.51043 4.19374 9.73945 4.19377 9.96846 4.19335C10.1835 4.19297 10.3986 4.19323 10.6137 4.19398C10.6926 4.19415 10.7714 4.1941 10.8503 4.19381C10.958 4.19346 11.0657 4.1939 11.1734 4.19455C11.2046 4.19426 11.2357 4.19397 11.2679 4.19367C11.4677 4.19598 11.6046 4.23321 11.7736 4.33982C11.922 4.53505 11.9742 4.68691 11.9621 4.93232C11.9275 5.13001 11.8414 5.27597 11.6801 5.39991C11.5296 5.47073 11.3989 5.47502 11.2359 5.47356C11.2038 5.47379 11.1717 5.47401 11.1386 5.47424C11.0311 5.47484 10.9236 5.47453 10.8161 5.47422C10.7389 5.47447 10.6618 5.47477 10.5846 5.47513C10.4185 5.47578 10.2524 5.47603 10.0863 5.47597C9.82333 5.47588 9.56038 5.47672 9.29744 5.47769C8.78634 5.47946 8.27524 5.48025 7.76414 5.48097C7.11452 5.48193 6.4649 5.48337 5.81528 5.48557C5.5542 5.48643 5.29313 5.48684 5.03205 5.4869C4.86913 5.48702 4.7062 5.48749 4.54327 5.48804C4.46808 5.48823 4.39289 5.48826 4.3177 5.48814C3.63751 5.48717 3.01382 5.51945 2.48765 6.00285C2.19293 6.36089 2.05611 6.76729 2.05663 7.2239C2.0565 7.25936 2.05637 7.29483 2.05624 7.33136C2.05587 7.45037 2.0558 7.56938 2.05574 7.68838C2.05554 7.77365 2.05532 7.85891 2.05509 7.94418C2.05453 8.17599 2.05425 8.4078 2.05406 8.63961C2.05393 8.78449 2.05376 8.92937 2.05356 9.07425C2.05298 9.52769 2.05256 9.98112 2.0524 10.4346C2.0522 10.9577 2.05145 11.4808 2.0502 12.004C2.04927 12.4085 2.04884 12.813 2.04878 13.2175C2.04874 13.459 2.04849 13.7005 2.04772 13.9421C2.04701 14.1694 2.04692 14.3967 2.04729 14.6241C2.04733 14.7073 2.04714 14.7906 2.04672 14.8738C2.03386 15.5946 2.03386 15.5946 2.32584 16.2395C2.40348 16.3459 2.45021 16.4165 2.49235 16.5429C2.5702 16.5886 2.5702 16.5886 2.66422 16.6289C2.76744 16.6935 2.87007 16.7589 2.97239 16.8249C3.23012 16.9559 3.49014 16.9853 3.77563 16.9836C3.82339 16.9838 3.82339 16.9838 3.87211 16.9841C3.94059 16.9844 4.00907 16.9845 4.07755 16.9844C4.18614 16.9844 4.29472 16.9849 4.40331 16.9857C4.71183 16.9876 5.02034 16.9887 5.32886 16.989C5.51816 16.9892 5.70744 16.9903 5.89673 16.9918C5.96856 16.9922 6.04039 16.9923 6.11222 16.9921C6.21278 16.9918 6.31329 16.9925 6.41384 16.9935C6.45782 16.993 6.45782 16.993 6.50268 16.9924C6.73275 16.9964 6.86193 17.0598 7.04703 17.1875C7.26602 17.4291 7.23754 17.7468 7.22478 18.0521C7.22284 18.1256 7.22284 18.1256 7.22085 18.2006C7.21657 18.3561 7.21108 18.5117 7.20548 18.6672C7.20059 18.8238 7.19594 18.9805 7.1915 19.1371C7.18866 19.2344 7.18551 19.3316 7.18203 19.4289C7.18061 19.4725 7.1792 19.5161 7.17773 19.5611C7.17636 19.5996 7.17498 19.6382 7.17356 19.6779C7.16588 19.7654 7.16588 19.7654 7.21891 19.8086C7.38588 19.8246 7.46625 19.8038 7.59522 19.6981C7.62521 19.6741 7.65519 19.6501 7.68608 19.6253C7.71802 19.5989 7.74996 19.5726 7.78287 19.5454C7.85245 19.4896 7.92211 19.4338 7.99184 19.3782C8.02755 19.3496 8.06325 19.321 8.10004 19.2915C8.26603 19.1606 8.43646 19.036 8.60734 18.9116C8.8991 18.6983 9.1878 18.4814 9.47477 18.2617C9.86385 17.9639 10.2569 17.6718 10.6525 17.3828C10.7734 17.2934 10.8926 17.2017 11.0114 17.1095C11.1392 17.0223 11.2505 17.0102 11.4005 17.0097C11.4384 17.0094 11.4763 17.0092 11.5153 17.009C11.5775 17.0089 11.5775 17.0089 11.6409 17.0088C11.6847 17.0086 11.7284 17.0084 11.7735 17.0082C11.8687 17.0077 11.9638 17.0073 12.059 17.007C12.2099 17.0065 12.3607 17.0057 12.5115 17.0048C12.9405 17.0021 13.3694 16.9998 13.7984 16.9984C14.0607 16.9975 14.323 16.9959 14.5853 16.994C14.6851 16.9934 14.7849 16.993 14.8847 16.9929C15.0248 16.9927 15.1648 16.9917 15.3049 16.9905C15.3457 16.9907 15.3865 16.9908 15.4286 16.9909C15.9063 16.985 16.3454 16.8392 16.7058 16.5174C16.9746 16.2259 17.1495 15.8587 17.1506 15.4616C17.151 15.3943 17.151 15.3943 17.1513 15.3256C17.1514 15.2766 17.1514 15.2276 17.1515 15.1771C17.1517 15.1254 17.1519 15.0736 17.1521 15.0202C17.1526 14.9076 17.153 14.7951 17.1533 14.6825C17.1537 14.5042 17.1546 14.326 17.1555 14.1477C17.1582 13.6408 17.1605 13.1339 17.1619 12.627C17.1627 12.3469 17.164 12.0669 17.1657 11.7869C17.1666 11.6389 17.1673 11.4908 17.1674 11.3428C17.1675 11.1774 17.1686 11.0121 17.1698 10.8467C17.1696 10.7981 17.1695 10.7496 17.1694 10.6995C17.1722 10.4259 17.1919 10.1739 17.3166 9.92576C17.4783 9.76794 17.5955 9.70398 17.8188 9.69749C18.0474 9.70046 18.1669 9.7425 18.3478 9.88279C18.5204 10.1278 18.4949 10.3902 18.4934 10.6777C18.4937 10.7588 18.4937 10.7588 18.4941 10.8415C18.4947 10.9893 18.4944 11.1371 18.494 11.285C18.4937 11.4403 18.494 11.5956 18.4942 11.7509C18.4945 12.0121 18.4941 12.2732 18.4935 12.5343C18.4928 12.8349 18.4931 13.1355 18.4938 13.4361C18.4944 13.6951 18.4944 13.9541 18.4941 14.2131C18.4939 14.3673 18.4939 14.5216 18.4943 14.6759C18.4947 14.8484 18.4941 15.0209 18.4934 15.1935C18.4937 15.2437 18.4939 15.2939 18.4942 15.3457C18.4907 15.8094 18.4119 16.2598 18.1974 16.6745C18.1828 16.7032 18.1682 16.7319 18.1532 16.7614C17.9915 17.0625 17.7761 17.2956 17.5314 17.5312C17.4891 17.5748 17.4891 17.5748 17.446 17.6192C16.9448 18.1043 16.1996 18.3149 15.5171 18.3061C15.4801 18.3054 15.4431 18.3047 15.4049 18.3039C15.3224 18.3028 15.24 18.3017 15.1575 18.3007C15.1141 18.3 15.0707 18.2994 15.026 18.2988C14.745 18.2953 14.4641 18.2948 14.1831 18.2938C13.9373 18.2928 13.6917 18.2907 13.4459 18.2863C13.207 18.282 12.9683 18.2807 12.7294 18.2814C12.6391 18.2811 12.5489 18.2798 12.4587 18.2774C11.7714 18.2597 11.3816 18.4237 10.866 18.8787C10.7603 18.971 10.6498 19.0539 10.5369 19.1372C10.4693 19.1891 10.4017 19.241 10.3341 19.2929C10.0172 19.5357 9.69778 19.7745 9.37544 20.01C9.19085 20.1453 9.00813 20.2826 8.82705 20.4226C8.78684 20.4536 8.74662 20.4846 8.70519 20.5165C8.62784 20.5764 8.55068 20.6365 8.47373 20.6968C8.00047 21.0627 7.60283 21.1925 7.00407 21.1406C6.61183 21.0362 6.30064 20.8436 6.0695 20.5095C5.80789 20.0384 5.83389 19.5691 5.85734 19.0486C5.86006 18.9762 5.86272 18.9038 5.86531 18.8315C5.87174 18.6558 5.87906 18.4802 5.88688 18.3047C5.84219 18.3051 5.84219 18.3051 5.7966 18.3055C5.51289 18.3081 5.22918 18.3101 4.94545 18.3113C4.79966 18.312 4.65388 18.3129 4.50809 18.3144C2.96476 18.3289 2.96476 18.3289 2.3903 18.0146C2.34739 17.9921 2.34739 17.9921 2.30361 17.9691C2.07488 17.846 1.86895 17.7058 1.67594 17.5312C1.64974 17.5085 1.62354 17.4857 1.59655 17.4622C1.05838 16.9643 0.752193 16.2143 0.718748 15.4893C0.712361 15.2637 0.713174 15.038 0.713949 14.8123C0.713774 14.726 0.713544 14.6396 0.713265 14.5533C0.712681 14.3205 0.712903 14.0878 0.713313 13.855C0.713642 13.6104 0.713337 13.3658 0.713135 13.1212C0.712901 12.7106 0.713208 12.3 0.713823 11.8894C0.714525 11.416 0.714297 10.9425 0.713588 10.469C0.713001 10.0612 0.712921 9.65335 0.713258 9.2455C0.713458 9.0025 0.713488 8.7595 0.71306 8.5165C0.712685 8.28795 0.71295 8.05941 0.71369 7.83086C0.71386 7.74741 0.713814 7.66396 0.713527 7.58051C0.710752 6.68919 0.851282 5.95892 1.41813 5.24216C1.45003 5.19785 1.48194 5.15354 1.51481 5.10789C2.21902 4.37166 3.0661 4.1907 4.03853 4.19423Z"/>
</mask>
<path d="M4.03853 4.19423C4.11989 4.19406 4.20125 4.19383 4.28261 4.19355C4.50214 4.19297 4.72167 4.19319 4.9412 4.1936C5.17144 4.19393 5.40168 4.19362 5.63192 4.19342C6.01818 4.19319 6.40443 4.19349 6.79069 4.19411C7.23707 4.19481 7.68344 4.19458 8.12982 4.19387C8.51369 4.19329 8.89755 4.19321 9.28142 4.19354C9.51043 4.19374 9.73945 4.19377 9.96846 4.19335C10.1835 4.19297 10.3986 4.19323 10.6137 4.19398C10.6926 4.19415 10.7714 4.1941 10.8503 4.19381C10.958 4.19346 11.0657 4.1939 11.1734 4.19455C11.2046 4.19426 11.2357 4.19397 11.2679 4.19367C11.4677 4.19598 11.6046 4.23321 11.7736 4.33982C11.922 4.53505 11.9742 4.68691 11.9621 4.93232C11.9275 5.13001 11.8414 5.27597 11.6801 5.39991C11.5296 5.47073 11.3989 5.47502 11.2359 5.47356C11.2038 5.47379 11.1717 5.47401 11.1386 5.47424C11.0311 5.47484 10.9236 5.47453 10.8161 5.47422C10.7389 5.47447 10.6618 5.47477 10.5846 5.47513C10.4185 5.47578 10.2524 5.47603 10.0863 5.47597C9.82333 5.47588 9.56038 5.47672 9.29744 5.47769C8.78634 5.47946 8.27524 5.48025 7.76414 5.48097C7.11452 5.48193 6.4649 5.48337 5.81528 5.48557C5.5542 5.48643 5.29313 5.48684 5.03205 5.4869C4.86913 5.48702 4.7062 5.48749 4.54327 5.48804C4.46808 5.48823 4.39289 5.48826 4.3177 5.48814C3.63751 5.48717 3.01382 5.51945 2.48765 6.00285C2.19293 6.36089 2.05611 6.76729 2.05663 7.2239C2.0565 7.25936 2.05637 7.29483 2.05624 7.33136C2.05587 7.45037 2.0558 7.56938 2.05574 7.68838C2.05554 7.77365 2.05532 7.85891 2.05509 7.94418C2.05453 8.17599 2.05425 8.4078 2.05406 8.63961C2.05393 8.78449 2.05376 8.92937 2.05356 9.07425C2.05298 9.52769 2.05256 9.98112 2.0524 10.4346C2.0522 10.9577 2.05145 11.4808 2.0502 12.004C2.04927 12.4085 2.04884 12.813 2.04878 13.2175C2.04874 13.459 2.04849 13.7005 2.04772 13.9421C2.04701 14.1694 2.04692 14.3967 2.04729 14.6241C2.04733 14.7073 2.04714 14.7906 2.04672 14.8738C2.03386 15.5946 2.03386 15.5946 2.32584 16.2395C2.40348 16.3459 2.45021 16.4165 2.49235 16.5429C2.5702 16.5886 2.5702 16.5886 2.66422 16.6289C2.76744 16.6935 2.87007 16.7589 2.97239 16.8249C3.23012 16.9559 3.49014 16.9853 3.77563 16.9836C3.82339 16.9838 3.82339 16.9838 3.87211 16.9841C3.94059 16.9844 4.00907 16.9845 4.07755 16.9844C4.18614 16.9844 4.29472 16.9849 4.40331 16.9857C4.71183 16.9876 5.02034 16.9887 5.32886 16.989C5.51816 16.9892 5.70744 16.9903 5.89673 16.9918C5.96856 16.9922 6.04039 16.9923 6.11222 16.9921C6.21278 16.9918 6.31329 16.9925 6.41384 16.9935C6.45782 16.993 6.45782 16.993 6.50268 16.9924C6.73275 16.9964 6.86193 17.0598 7.04703 17.1875C7.26602 17.4291 7.23754 17.7468 7.22478 18.0521C7.22284 18.1256 7.22284 18.1256 7.22085 18.2006C7.21657 18.3561 7.21108 18.5117 7.20548 18.6672C7.20059 18.8238 7.19594 18.9805 7.1915 19.1371C7.18866 19.2344 7.18551 19.3316 7.18203 19.4289C7.18061 19.4725 7.1792 19.5161 7.17773 19.5611C7.17636 19.5996 7.17498 19.6382 7.17356 19.6779C7.16588 19.7654 7.16588 19.7654 7.21891 19.8086C7.38588 19.8246 7.46625 19.8038 7.59522 19.6981C7.62521 19.6741 7.65519 19.6501 7.68608 19.6253C7.71802 19.5989 7.74996 19.5726 7.78287 19.5454C7.85245 19.4896 7.92211 19.4338 7.99184 19.3782C8.02755 19.3496 8.06325 19.321 8.10004 19.2915C8.26603 19.1606 8.43646 19.036 8.60734 18.9116C8.8991 18.6983 9.1878 18.4814 9.47477 18.2617C9.86385 17.9639 10.2569 17.6718 10.6525 17.3828C10.7734 17.2934 10.8926 17.2017 11.0114 17.1095C11.1392 17.0223 11.2505 17.0102 11.4005 17.0097C11.4384 17.0094 11.4763 17.0092 11.5153 17.009C11.5775 17.0089 11.5775 17.0089 11.6409 17.0088C11.6847 17.0086 11.7284 17.0084 11.7735 17.0082C11.8687 17.0077 11.9638 17.0073 12.059 17.007C12.2099 17.0065 12.3607 17.0057 12.5115 17.0048C12.9405 17.0021 13.3694 16.9998 13.7984 16.9984C14.0607 16.9975 14.323 16.9959 14.5853 16.994C14.6851 16.9934 14.7849 16.993 14.8847 16.9929C15.0248 16.9927 15.1648 16.9917 15.3049 16.9905C15.3457 16.9907 15.3865 16.9908 15.4286 16.9909C15.9063 16.985 16.3454 16.8392 16.7058 16.5174C16.9746 16.2259 17.1495 15.8587 17.1506 15.4616C17.151 15.3943 17.151 15.3943 17.1513 15.3256C17.1514 15.2766 17.1514 15.2276 17.1515 15.1771C17.1517 15.1254 17.1519 15.0736 17.1521 15.0202C17.1526 14.9076 17.153 14.7951 17.1533 14.6825C17.1537 14.5042 17.1546 14.326 17.1555 14.1477C17.1582 13.6408 17.1605 13.1339 17.1619 12.627C17.1627 12.3469 17.164 12.0669 17.1657 11.7869C17.1666 11.6389 17.1673 11.4908 17.1674 11.3428C17.1675 11.1774 17.1686 11.0121 17.1698 10.8467C17.1696 10.7981 17.1695 10.7496 17.1694 10.6995C17.1722 10.4259 17.1919 10.1739 17.3166 9.92576C17.4783 9.76794 17.5955 9.70398 17.8188 9.69749C18.0474 9.70046 18.1669 9.7425 18.3478 9.88279C18.5204 10.1278 18.4949 10.3902 18.4934 10.6777C18.4937 10.7588 18.4937 10.7588 18.4941 10.8415C18.4947 10.9893 18.4944 11.1371 18.494 11.285C18.4937 11.4403 18.494 11.5956 18.4942 11.7509C18.4945 12.0121 18.4941 12.2732 18.4935 12.5343C18.4928 12.8349 18.4931 13.1355 18.4938 13.4361C18.4944 13.6951 18.4944 13.9541 18.4941 14.2131C18.4939 14.3673 18.4939 14.5216 18.4943 14.6759C18.4947 14.8484 18.4941 15.0209 18.4934 15.1935C18.4937 15.2437 18.4939 15.2939 18.4942 15.3457C18.4907 15.8094 18.4119 16.2598 18.1974 16.6745C18.1828 16.7032 18.1682 16.7319 18.1532 16.7614C17.9915 17.0625 17.7761 17.2956 17.5314 17.5312C17.4891 17.5748 17.4891 17.5748 17.446 17.6192C16.9448 18.1043 16.1996 18.3149 15.5171 18.3061C15.4801 18.3054 15.4431 18.3047 15.4049 18.3039C15.3224 18.3028 15.24 18.3017 15.1575 18.3007C15.1141 18.3 15.0707 18.2994 15.026 18.2988C14.745 18.2953 14.4641 18.2948 14.1831 18.2938C13.9373 18.2928 13.6917 18.2907 13.4459 18.2863C13.207 18.282 12.9683 18.2807 12.7294 18.2814C12.6391 18.2811 12.5489 18.2798 12.4587 18.2774C11.7714 18.2597 11.3816 18.4237 10.866 18.8787C10.7603 18.971 10.6498 19.0539 10.5369 19.1372C10.4693 19.1891 10.4017 19.241 10.3341 19.2929C10.0172 19.5357 9.69778 19.7745 9.37544 20.01C9.19085 20.1453 9.00813 20.2826 8.82705 20.4226C8.78684 20.4536 8.74662 20.4846 8.70519 20.5165C8.62784 20.5764 8.55068 20.6365 8.47373 20.6968C8.00047 21.0627 7.60283 21.1925 7.00407 21.1406C6.61183 21.0362 6.30064 20.8436 6.0695 20.5095C5.80789 20.0384 5.83389 19.5691 5.85734 19.0486C5.86006 18.9762 5.86272 18.9038 5.86531 18.8315C5.87174 18.6558 5.87906 18.4802 5.88688 18.3047C5.84219 18.3051 5.84219 18.3051 5.7966 18.3055C5.51289 18.3081 5.22918 18.3101 4.94545 18.3113C4.79966 18.312 4.65388 18.3129 4.50809 18.3144C2.96476 18.3289 2.96476 18.3289 2.3903 18.0146C2.34739 17.9921 2.34739 17.9921 2.30361 17.9691C2.07488 17.846 1.86895 17.7058 1.67594 17.5312C1.64974 17.5085 1.62354 17.4857 1.59655 17.4622C1.05838 16.9643 0.752193 16.2143 0.718748 15.4893C0.712361 15.2637 0.713174 15.038 0.713949 14.8123C0.713774 14.726 0.713544 14.6396 0.713265 14.5533C0.712681 14.3205 0.712903 14.0878 0.713313 13.855C0.713642 13.6104 0.713337 13.3658 0.713135 13.1212C0.712901 12.7106 0.713208 12.3 0.713823 11.8894C0.714525 11.416 0.714297 10.9425 0.713588 10.469C0.713001 10.0612 0.712921 9.65335 0.713258 9.2455C0.713458 9.0025 0.713488 8.7595 0.71306 8.5165C0.712685 8.28795 0.71295 8.05941 0.71369 7.83086C0.71386 7.74741 0.713814 7.66396 0.713527 7.58051C0.710752 6.68919 0.851282 5.95892 1.41813 5.24216C1.45003 5.19785 1.48194 5.15354 1.51481 5.10789C2.21902 4.37166 3.0661 4.1907 4.03853 4.19423Z" fill="white" stroke="white" stroke-width="2" mask="url(#path-1-inside-1_553_26483)"/>
<path d="M17.3088 0.883962C17.3499 0.889335 17.3909 0.894708 17.4332 0.900243C17.8103 1.02148 18.0233 1.24967 18.2166 1.58489C18.2782 1.68747 18.34 1.78992 18.4029 1.89178C18.4604 1.99117 18.5099 2.08835 18.5586 2.19193C18.6906 2.4553 18.8124 2.68504 19.0968 2.79861C19.3179 2.86791 19.5436 2.90934 19.7715 2.94915C19.8879 2.97168 20.004 2.99503 20.12 3.01928C20.1916 3.03402 20.2635 3.04769 20.3355 3.06005C20.6453 3.11979 20.8509 3.27339 21.0686 3.497C21.2624 3.79853 21.3201 4.08533 21.2509 4.43761C21.1369 4.79993 20.8591 5.06153 20.6094 5.33652C20.4503 5.51419 20.3012 5.70052 20.1528 5.88714C20.1301 5.91329 20.1073 5.93945 20.0838 5.9664C20.0117 6.07795 20.011 6.13203 20.0192 6.26328C20.0224 6.32309 20.0224 6.32309 20.0257 6.3841C20.0287 6.42659 20.0316 6.46909 20.0347 6.51287C20.0383 6.57865 20.0383 6.57865 20.0419 6.64575C20.0537 6.857 20.0683 7.06796 20.0844 7.27892C20.1174 7.73306 20.1418 8.10461 19.8467 8.48138C19.6164 8.71839 19.3787 8.81656 19.0491 8.83201C18.6543 8.82739 18.3218 8.66223 17.9668 8.50554C17.8666 8.46169 17.7663 8.41816 17.6655 8.37549C17.6034 8.34914 17.5415 8.32211 17.48 8.2943C17.2145 8.1812 17.0403 8.21065 16.7747 8.30657C16.7198 8.3297 16.665 8.35312 16.6103 8.37681C16.5492 8.40216 16.4881 8.42748 16.427 8.45276C16.3323 8.49232 16.2379 8.53216 16.1436 8.57272C15.7141 8.75674 15.295 8.92535 14.8264 8.76565C14.5156 8.62904 14.3378 8.43881 14.2065 8.12336C14.1572 7.95908 14.1651 7.79475 14.1694 7.62469C14.1699 7.58682 14.1704 7.54896 14.1709 7.50995C14.1745 7.29158 14.185 7.07442 14.2017 6.85662C14.205 6.80943 14.2084 6.76224 14.2119 6.71361C14.2196 6.61898 14.2294 6.5245 14.2411 6.43029C14.2584 6.21625 14.2625 6.0751 14.1409 5.89268C14.0294 5.77104 13.9125 5.65759 13.7935 5.54339C13.018 4.65247 13.018 4.65247 12.9609 4.15764C12.9999 3.76841 13.1211 3.51226 13.4198 3.25839C13.6223 3.12154 13.8397 3.07301 14.0754 3.01897C14.1248 3.00615 14.1742 2.99333 14.2251 2.98013C14.4353 2.92633 14.6413 2.87667 14.8574 2.85566C15.0911 2.82894 15.2624 2.79506 15.4222 2.61547C15.593 2.38421 15.7343 2.13802 15.8724 1.88631C16.0874 1.50205 16.298 1.13978 16.6992 0.929616C16.9099 0.874185 17.0925 0.851815 17.3088 0.883962ZM17.1021 2.3637C17.0586 2.42646 17.0173 2.49068 16.9768 2.55538C16.9512 2.59609 16.9255 2.6368 16.8991 2.67875C16.8721 2.72189 16.8452 2.76504 16.8174 2.8095C16.6623 3.05715 16.5065 3.30433 16.3437 3.54702C16.3212 3.5809 16.2986 3.61477 16.2753 3.64968C16.1003 3.85568 15.8777 3.90472 15.6255 3.96479C15.5915 3.97319 15.5574 3.98159 15.5224 3.99025C15.4143 4.01684 15.3062 4.04294 15.198 4.06902C15.1244 4.08703 15.0509 4.10507 14.9774 4.12315C14.7977 4.16725 14.6179 4.21091 14.438 4.25432C14.5784 4.44547 14.7194 4.63098 14.8811 4.80486C14.9301 4.85911 14.9301 4.85911 14.9801 4.91446C15.0499 4.99163 15.1199 5.06849 15.1903 5.14509C15.2247 5.18436 15.2592 5.22363 15.2947 5.26409C15.3261 5.2991 15.3575 5.3341 15.3898 5.37017C15.614 5.73795 15.5539 6.15176 15.5176 6.56389C15.5087 6.67377 15.4998 6.78366 15.4911 6.89355C15.4869 6.94166 15.4828 6.98978 15.4785 7.03936C15.4696 7.17141 15.4676 7.30171 15.4692 7.43401C15.4989 7.4219 15.5285 7.40978 15.559 7.3973C16.518 7.00608 16.518 7.00608 16.8657 6.88616C16.9034 6.87309 16.9411 6.86002 16.9799 6.84655C17.3643 6.80219 17.741 7.01438 18.085 7.16009C18.1886 7.20389 18.2923 7.24735 18.3961 7.29067C18.4416 7.30993 18.4871 7.32918 18.5339 7.34902C18.6487 7.39842 18.6487 7.39842 18.7778 7.39104C18.7765 7.36516 18.7752 7.33927 18.7739 7.3126C18.7589 7.00939 18.7462 6.70613 18.7349 6.40276C18.7333 6.36364 18.7317 6.32451 18.7301 6.2842C18.7262 6.17959 18.7236 6.07504 18.7214 5.97039C18.7202 5.93954 18.7189 5.9087 18.7176 5.87692C18.7136 5.53331 18.938 5.32723 19.1511 5.08416C19.3754 4.82567 19.594 4.56346 19.8091 4.29729C19.6557 4.20956 19.5001 4.17384 19.3287 4.13381C19.2678 4.11922 19.2068 4.10462 19.1459 4.09C19.0506 4.06736 18.9552 4.04487 18.8597 4.02272C18.767 4.00113 18.6746 3.97889 18.5821 3.95656C18.527 3.94361 18.4718 3.93066 18.415 3.91731C18.1449 3.82944 17.9912 3.70577 17.8458 3.46393C17.8185 3.41932 17.7912 3.3747 17.7631 3.32873C17.7355 3.28234 17.7079 3.23596 17.6794 3.18816C17.624 3.09652 17.5684 3.00493 17.5128 2.9134C17.4867 2.87043 17.4606 2.82747 17.4337 2.78321C17.3433 2.63791 17.2491 2.49952 17.145 2.3637C17.1308 2.3637 17.1167 2.3637 17.1021 2.3637Z" fill="white"/>
<path d="M6.60116 9.01697C6.6292 9.01687 6.65725 9.01677 6.68614 9.01667C6.77978 9.0164 6.87342 9.01643 6.96706 9.01647C7.03434 9.01634 7.10162 9.0162 7.16889 9.01603C7.35142 9.01565 7.53395 9.01555 7.71648 9.01553C7.83058 9.01549 7.94467 9.0154 8.05877 9.01529C8.45696 9.01489 8.85515 9.01472 9.25335 9.01475C9.62427 9.01478 9.99519 9.01432 10.3661 9.01364C10.6848 9.01308 11.0035 9.01285 11.3222 9.01288C11.5124 9.01289 11.7026 9.01277 11.8929 9.01231C12.0718 9.0119 12.2508 9.01189 12.4297 9.01221C12.4953 9.01225 12.5609 9.01215 12.6264 9.01189C12.7162 9.01156 12.8059 9.01176 12.8956 9.01209C12.9458 9.01206 12.9959 9.01204 13.0476 9.01202C13.2708 9.02862 13.4406 9.06511 13.613 9.2107C13.7664 9.39484 13.811 9.50531 13.8036 9.75217C13.7795 9.94753 13.6973 10.0669 13.5539 10.1963C13.3833 10.3144 13.2886 10.3174 13.0806 10.3181C13.0512 10.3183 13.0218 10.3184 12.9916 10.3186C12.8927 10.3191 12.7938 10.3192 12.6949 10.3194C12.6242 10.3196 12.5535 10.3199 12.4828 10.3202C12.2903 10.321 12.0978 10.3214 11.9053 10.3218C11.7851 10.322 11.6649 10.3223 11.5447 10.3225C11.1686 10.3234 10.7926 10.324 10.4166 10.3243C9.98232 10.3248 9.54808 10.3259 9.11383 10.3276C8.77832 10.3289 8.44282 10.3296 8.10731 10.3297C7.90686 10.3298 7.70643 10.3302 7.50598 10.3313C7.31736 10.3323 7.12876 10.3324 6.94014 10.332C6.87096 10.332 6.80178 10.3323 6.7326 10.3328C6.63803 10.3336 6.54352 10.3333 6.44894 10.3327C6.39606 10.3328 6.34318 10.3329 6.28869 10.333C6.06383 10.2999 5.93246 10.1917 5.7846 10.0244C5.69396 9.83964 5.67998 9.69747 5.71478 9.49537C5.77307 9.33358 5.85363 9.21999 5.99139 9.11402C6.19315 9.02545 6.38251 9.01728 6.60116 9.01697Z" fill="white"/>
<path d="M6.55766 12.1541C6.5954 12.1539 6.63314 12.1537 6.67203 12.1535C6.79703 12.1528 6.92204 12.1526 7.04704 12.1523C7.13391 12.1521 7.22077 12.1518 7.30764 12.1516C7.48987 12.1511 7.6721 12.1509 7.85433 12.1507C8.08768 12.1505 8.32102 12.1495 8.55437 12.1482C8.73385 12.1474 8.91333 12.1472 9.09282 12.1471C9.17883 12.147 9.26485 12.1467 9.35087 12.1461C9.47131 12.1454 9.59172 12.1455 9.71217 12.1457C9.76532 12.1451 9.76532 12.1451 9.81954 12.1445C10.0976 12.1465 10.2734 12.2091 10.477 12.4081C10.6149 12.613 10.6264 12.7602 10.5925 13.0016C10.5101 13.1903 10.3973 13.2943 10.2272 13.4071C10.0606 13.4627 9.90254 13.4568 9.72885 13.457C9.6911 13.4572 9.65336 13.4575 9.61447 13.4577C9.48947 13.4583 9.36447 13.4586 9.23946 13.4588C9.15259 13.4591 9.06573 13.4593 8.97886 13.4596C8.79663 13.46 8.6144 13.4603 8.43217 13.4604C8.19882 13.4607 7.96548 13.4617 7.73213 13.4629C7.55265 13.4637 7.37317 13.4639 7.19369 13.464C7.10767 13.4641 7.02165 13.4645 6.93564 13.4651C6.81519 13.4658 6.69478 13.4657 6.57434 13.4654C6.5389 13.4658 6.50347 13.4662 6.46696 13.4666C6.25632 13.4651 6.11315 13.4371 5.93036 13.3212C5.73933 13.1095 5.70044 12.9795 5.70326 12.7C5.72565 12.5004 5.82977 12.3836 5.97602 12.255C6.16192 12.1411 6.34716 12.1544 6.55766 12.1541Z" fill="white"/>
</g>
<defs>
<clipPath id="clip0_553_26483">
<rect width="22" height="22" fill="white"/>
</clipPath>
</defs>
</svg>
