<svg width="20" height="20" viewBox="0 0 20 20" fill="none" xmlns="http://www.w3.org/2000/svg">
<path d="M9.55806 3.20082C9.80214 2.95674 10.1979 2.95674 10.4419 3.20082L17.6831 10.4419C17.9271 10.686 18.3229 10.686 18.5669 10.4419C18.811 10.1979 18.811 9.80213 18.5669 9.55805L11.3258 2.31694C10.5936 1.5847 9.40641 1.5847 8.67417 2.31694L1.43306 9.55805C1.18898 9.80213 1.18898 10.1979 1.43306 10.4419C1.67714 10.686 2.07286 10.686 2.31694 10.4419L9.55806 3.20082Z" fill="#364152"/>
<path d="M10 4.52665L16.7992 11.3258C16.8239 11.3506 16.8492 11.3745 16.875 11.3976V16.5625C16.875 17.4254 16.1754 18.125 15.3125 18.125H12.5C12.1548 18.125 11.875 17.8452 11.875 17.5V13.75C11.875 13.4048 11.5952 13.125 11.25 13.125H8.75C8.40482 13.125 8.125 13.4048 8.125 13.75V17.5C8.125 17.8452 7.84518 18.125 7.5 18.125H4.6875C3.82456 18.125 3.125 17.4254 3.125 16.5625V11.3976C3.15077 11.3745 3.17606 11.3506 3.20083 11.3258L10 4.52665Z" fill="#364152"/>
</svg>
